<?xml version="1.0" standalone="no"?>
<!DOCTYPE svg PUBLIC "-//W3C//DTD SVG 20010904//EN"
 "http://www.w3.org/TR/2001/REC-SVG-20010904/DTD/svg10.dtd">
<svg version="1.0" xmlns="http://www.w3.org/2000/svg"
 width="480.000000pt" height="480.000000pt" viewBox="0 0 480.000000 480.000000"
 preserveAspectRatio="xMidYMid meet">

<g transform="translate(0.000000,480.000000) scale(0.100000,-0.100000)"
fill="#000000" stroke="none">
<path d="M2210 4733 c-568 -58 -1063 -288 -1451 -673 -604 -600 -837 -1457
-618 -2280 81 -305 243 -624 442 -869 212 -262 524 -508 820 -645 501 -234
1062 -287 1592 -151 770 197 1390 772 1641 1523 201 602 153 1263 -132 1817
-67 131 -118 213 -207 335 -87 117 -116 151 -237 270 -386 382 -885 616 -1429
670 -96 9 -342 11 -421 3z m585 -82 c234 -42 408 -98 620 -201 235 -114 422
-248 615 -440 434 -434 672 -1004 672 -1615 0 -93 -5 -210 -12 -260 -65 -527
-287 -988 -650 -1355 -181 -183 -363 -317 -583 -429 -212 -108 -415 -178 -651
-222 -141 -27 -506 -38 -654 -19 -789 97 -1463 574 -1802 1275 -105 217 -155
369 -201 615 -33 180 -38 508 -10 703 65 449 243 844 533 1182 367 429 866
698 1443 780 153 22 524 14 680 -14z"/>
<path d="M2117 4615 c-123 -15 -167 -24 -321 -67 -858 -237 -1509 -999 -1612
-1884 -20 -167 -14 -484 10 -639 21 -130 78 -332 133 -470 258 -645 810 -1141
1473 -1325 190 -53 326 -72 555 -77 318 -7 561 31 825 129 323 121 576 282
815 522 342 344 551 751 632 1231 25 153 25 564 0 710 -44 249 -119 477 -227
682 -348 664 -1002 1112 -1742 1192 -129 14 -407 12 -541 -4z m494 -45 c757
-76 1406 -518 1748 -1189 105 -205 170 -402 213 -640 16 -93 21 -160 22 -341
1 -235 -5 -296 -50 -491 -254 -1120 -1325 -1852 -2462 -1683 -356 53 -701 199
-993 421 -391 297 -672 716 -793 1185 -59 227 -70 310 -70 543 -1 243 10 338
64 550 245 966 1104 1642 2101 1654 64 0 163 -4 220 -9z"/>
<path d="M2108 4427 c-71 -10 -81 -18 -48 -39 24 -15 25 -37 6 -104 -8 -27
-22 -75 -30 -107 l-17 -57 -41 2 c-56 4 -63 -21 -13 -45 19 -9 35 -22 35 -28
0 -6 -10 -44 -22 -85 -16 -58 -29 -82 -56 -105 -19 -17 -33 -32 -31 -34 5 -4
180 22 186 28 2 3 -9 13 -26 23 -36 21 -36 17 -14 95 19 68 16 67 113 39 45
-13 46 -13 104 26 l59 39 16 -24 c9 -14 26 -41 39 -62 l22 -37 -27 -33 -28
-32 40 6 c22 3 66 9 98 13 31 4 57 10 57 13 -1 3 -19 15 -42 26 -32 15 -51 36
-80 84 -21 34 -38 69 -38 75 0 7 11 23 24 35 41 38 6 72 -35 35 -10 -9 -22
-13 -27 -10 -13 8 -132 209 -132 223 0 6 7 16 15 23 37 31 13 35 -107 17z
m111 -189 l65 -111 -45 -39 c-24 -21 -51 -38 -59 -38 -8 1 -35 11 -60 23 -52
26 -52 23 -14 162 33 117 32 115 41 115 4 -1 37 -51 72 -112z"/>
<path d="M1580 4265 c-13 -14 -30 -25 -39 -25 -32 0 -101 -43 -121 -75 -40
-65 -22 -151 42 -198 25 -18 41 -21 135 -19 99 2 110 1 136 -20 39 -32 46 -86
18 -132 -29 -46 -94 -78 -143 -70 -40 7 -38 10 -52 -75 l-6 -35 25 24 c14 14
44 26 74 31 27 4 68 20 91 35 105 70 107 221 4 282 -36 21 -47 22 -136 17
l-98 -7 -30 30 c-39 40 -40 81 -2 123 21 24 40 34 73 38 42 6 44 7 51 50 4 25
6 46 5 48 -2 2 -14 -8 -27 -22z"/>
<path d="M3385 4203 c25 -58 21 -66 -105 -235 -67 -90 -125 -169 -130 -177 -4
-8 -29 -17 -55 -20 l-48 -6 114 -81 c63 -45 134 -92 158 -104 169 -85 374 30
397 222 8 72 -16 156 -59 205 -28 32 -261 213 -274 213 -3 0 -2 -8 2 -17z
m129 -142 c145 -107 187 -231 117 -344 -66 -107 -189 -145 -292 -91 -56 28
-148 99 -149 112 0 18 252 362 266 362 3 0 29 -18 58 -39z"/>
<path d="M2852 4160 c-29 -27 -29 -83 -2 -110 28 -28 75 -26 105 5 32 31 32
65 0 99 -29 32 -72 34 -103 6z"/>
<path d="M900 3764 c-30 -36 -56 -69 -58 -75 -2 -5 12 -9 30 -9 34 0 36 -2 86
-105 29 -58 52 -111 52 -119 0 -7 -14 -19 -30 -26 -20 -8 -30 -19 -28 -29 3
-16 30 -19 72 -10 15 3 27 -11 57 -71 34 -66 38 -81 33 -125 l-5 -50 64 70
c36 39 63 72 61 75 -3 2 -22 3 -43 1 -37 -2 -38 -1 -63 57 -14 33 -23 64 -19
69 3 6 28 18 54 28 55 21 71 40 88 108 6 26 15 49 18 52 8 4 108 -25 129 -38
6 -5 12 -25 12 -45 l0 -37 35 40 c83 95 101 119 80 111 -47 -19 -92 -17 -165
6 l-75 24 3 41 c1 30 -2 42 -14 47 -22 9 -30 1 -37 -34 -4 -16 -12 -30 -19
-29 -7 0 -62 17 -123 37 -103 35 -110 39 -119 70 -5 17 -12 32 -15 31 -3 0
-31 -29 -61 -65z m195 -93 l110 -37 -2 -45 c-4 -77 -8 -84 -66 -102 -30 -9
-57 -17 -61 -17 -6 0 -116 222 -116 235 0 10 27 3 135 -34z"/>
<path d="M2161 3575 c-333 -75 -607 -286 -755 -582 -79 -157 -113 -313 -123
-563 -16 -406 126 -682 479 -928 70 -48 221 -118 323 -148 131 -39 355 -45
505 -14 189 39 397 120 532 207 115 75 260 249 342 411 30 60 34 133 11 189
l-16 37 -22 -35 c-13 -19 -31 -61 -41 -94 -39 -126 -110 -237 -228 -353 -125
-123 -261 -205 -423 -255 -130 -40 -217 -50 -397 -44 -222 7 -327 39 -498 151
-196 129 -331 296 -409 506 -72 196 -85 479 -31 679 67 242 230 469 436 607
152 101 288 144 459 144 314 0 627 -119 816 -310 107 -108 177 -226 219 -370
13 -41 38 -112 58 -158 29 -70 38 -83 56 -80 19 3 21 9 19 65 -7 231 -257 629
-496 789 -85 57 -223 116 -327 139 -106 24 -403 30 -489 10z"/>
<path d="M4070 3553 c0 -40 -22 -52 -127 -68 -151 -22 -153 -22 -153 20 0 31
-3 35 -25 35 -22 0 -25 -4 -25 -39 0 -22 -3 -42 -8 -45 -4 -2 -42 -9 -85 -15
-71 -10 -81 -9 -118 10 -23 11 -43 19 -45 17 -5 -6 90 -158 99 -158 4 0 7 10
7 23 0 12 4 28 9 36 9 14 126 35 142 25 5 -3 9 -22 9 -43 0 -78 9 -95 66 -131
30 -19 54 -39 54 -45 0 -14 -71 -115 -81 -115 -4 0 -20 5 -35 10 -15 6 -29 9
-31 6 -6 -5 90 -156 100 -156 4 0 7 19 7 43 0 34 9 56 46 111 42 62 48 67 72
61 51 -12 66 -10 70 7 2 11 -6 22 -22 29 -14 7 -26 17 -26 24 0 9 115 181 137
205 2 2 19 3 38 2 19 -2 35 -1 35 1 0 9 -92 157 -101 162 -5 4 -9 -2 -9 -12z
m0 -108 c0 -12 -153 -215 -162 -215 -6 0 -32 12 -59 27 l-49 26 0 63 0 62 68
11 c37 6 92 14 122 19 71 12 80 13 80 7z"/>
<path d="M580 3271 c0 -6 5 -13 10 -16 18 -11 10 -40 -20 -69 -40 -39 -71
-111 -77 -176 -9 -106 54 -217 150 -264 152 -74 313 -23 384 122 23 47 28 70
28 134 0 72 2 78 24 88 14 6 20 15 15 19 -11 10 -106 42 -111 37 -2 -1 4 -32
13 -67 29 -114 3 -204 -79 -266 -112 -84 -270 -52 -342 71 -64 109 -29 242 86
321 22 16 36 31 32 35 -7 6 -100 40 -110 40 -2 0 -3 -4 -3 -9z"/>
<path d="M2275 3256 c-87 -20 -176 -64 -295 -144 -125 -83 -174 -130 -195
-187 -18 -45 -17 -116 1 -122 6 -2 40 41 76 94 72 109 133 163 238 212 114 53
180 66 335 65 124 0 149 -3 220 -27 223 -74 367 -219 446 -450 21 -61 51 -128
66 -150 l28 -40 3 67 c4 86 -25 205 -74 305 -69 139 -224 267 -394 325 -160
54 -351 76 -455 52z"/>
<path d="M2313 2946 c-81 -20 -178 -72 -230 -124 -57 -56 -116 -164 -133 -243
-19 -83 -8 -249 19 -321 47 -121 158 -238 226 -238 54 0 47 35 -20 115 -121
143 -168 241 -166 350 2 122 77 255 192 340 89 66 151 81 265 67 50 -7 113
-21 139 -32 229 -98 339 -366 236 -574 -28 -58 -121 -166 -143 -166 -14 0 -68
-56 -61 -63 14 -14 110 -6 151 13 57 26 146 112 173 166 32 67 30 230 -6 342
-40 126 -147 272 -241 328 -81 48 -284 68 -401 40z"/>
<path d="M4061 2854 c-28 -35 -26 -69 4 -99 30 -30 64 -32 99 -4 33 26 36 79
6 109 -30 30 -83 27 -109 -6z"/>
<path d="M4434 2553 c-25 -30 -46 -43 -100 -61 -87 -28 -90 -28 -109 8 -17 32
-22 35 -44 21 -12 -8 -13 -14 -3 -36 7 -14 12 -30 12 -34 0 -5 -54 -28 -120
-51 l-121 -43 -24 23 c-14 13 -27 22 -29 19 -2 -2 -7 -49 -10 -104 l-8 -100
24 23 c14 12 30 22 36 22 18 0 232 -109 232 -118 0 -4 -7 -18 -16 -30 -9 -13
-13 -29 -10 -37 9 -24 34 -17 53 15 9 17 21 30 25 30 12 0 108 -49 139 -71 15
-10 35 -36 45 -56 l19 -38 6 55 c4 30 7 77 8 104 l1 50 -30 -29 -30 -29 -60
29 c-33 16 -60 33 -60 38 0 4 14 34 32 66 l32 58 -22 53 c-33 79 -31 83 43
107 l64 21 24 -32 25 -31 7 55 c3 30 5 75 3 99 l-3 43 -31 -39z m-187 -217
l26 -54 -32 -51 c-18 -28 -37 -51 -42 -51 -13 0 -239 114 -239 120 0 5 233 87
253 89 4 1 19 -23 34 -53z"/>
<path d="M622 2427 c-28 -29 -28 -67 -1 -101 40 -51 129 -20 129 46 0 68 -83
103 -128 55z"/>
<path d="M1630 2276 c-5 -15 -10 -35 -10 -44 0 -22 99 -198 155 -277 94 -132
244 -244 392 -292 97 -32 313 -43 427 -23 156 27 298 96 408 199 55 50 156
190 202 278 28 55 17 123 -19 123 -6 0 -19 -24 -28 -52 -27 -87 -87 -178 -172
-263 -127 -127 -259 -183 -490 -207 -249 -26 -444 53 -613 246 -30 34 -92 120
-139 191 -48 72 -90 134 -94 139 -5 5 -13 -3 -19 -18z"/>
<path d="M693 2041 c-129 -44 -201 -152 -191 -285 6 -70 40 -146 87 -190 24
-23 28 -33 21 -47 -18 -34 -10 -37 45 -16 30 11 55 23 55 27 0 4 -12 15 -26
25 -44 28 -96 88 -115 130 -56 123 30 284 168 313 173 37 318 -122 272 -298
-9 -33 -14 -62 -12 -64 3 -2 32 5 66 17 l62 21 -32 13 c-32 12 -32 13 -31 85
1 60 -4 82 -25 123 -72 139 -203 195 -344 146z"/>
<path d="M3850 1879 c-48 -20 -83 -65 -141 -183 -33 -65 -57 -121 -55 -124 3
-2 15 3 28 12 12 9 31 16 42 16 18 0 172 -71 361 -165 56 -28 60 -33 63 -67 2
-21 7 -38 11 -38 7 0 81 151 81 165 0 4 -16 -3 -35 -15 l-35 -22 -123 60 c-67
32 -159 76 -204 97 -46 21 -83 44 -83 51 0 26 53 125 77 144 51 40 134 13 148
-49 4 -18 -1 -47 -14 -80 -19 -51 -19 -51 1 -62 23 -12 20 -15 46 37 45 90
118 118 170 67 69 -69 130 -87 231 -67 28 6 31 10 30 43 -1 20 -5 50 -8 66
l-8 30 -17 -42 c-15 -35 -24 -44 -51 -49 -46 -8 -67 0 -127 52 -64 54 -103 63
-158 36 l-39 -19 -19 35 c-10 20 -30 44 -44 55 -30 22 -94 31 -128 16z"/>
<path d="M1138 1587 c3 -40 1 -45 -40 -77 -92 -74 -221 -195 -239 -224 -30
-49 -26 -141 8 -194 34 -52 91 -82 157 -82 72 0 74 1 348 238 27 23 104 -2
123 -39 17 -32 19 -61 6 -75 -5 -5 -53 -88 -106 -184 -54 -96 -102 -178 -109
-182 -6 -4 -26 -8 -43 -8 -18 0 -33 -3 -33 -7 0 -7 152 -93 163 -93 3 0 -4 17
-15 38 l-20 37 82 145 c44 80 88 151 95 159 9 10 43 16 97 18 91 5 130 -10
163 -60 25 -38 9 -74 -63 -147 -84 -84 -125 -135 -151 -187 -15 -30 -29 -44
-49 -49 -15 -3 -31 -7 -36 -8 -5 -1 29 -23 74 -49 46 -26 85 -45 88 -42 2 2
-5 17 -17 33 -12 17 -21 41 -21 54 0 36 75 142 142 200 91 79 115 139 84 211
-29 70 -102 107 -208 107 -54 0 -72 10 -48 25 26 16 8 46 -44 75 -30 17 -76
57 -106 93 -30 34 -58 67 -63 72 -6 6 -8 -6 -4 -33 l5 -42 -121 -106 c-143
-125 -184 -148 -240 -141 -74 10 -130 92 -108 160 12 34 76 100 196 203 106
90 98 85 134 73 18 -6 34 -9 37 -6 5 5 -105 137 -115 137 -3 0 -5 -19 -3 -43z"/>
<path d="M3558 1474 c-62 -76 -69 -91 -39 -74 45 24 69 12 220 -110 208 -169
201 -161 194 -204 -3 -20 -2 -36 3 -35 12 1 117 129 111 135 -2 2 -16 0 -31
-6 -39 -15 -40 -15 -103 38 -32 27 -110 90 -173 142 -112 90 -115 94 -120 139
l-5 46 -57 -71z"/>
<path d="M3459 1325 c-1 -3 -3 -9 -4 -15 -1 -5 -3 -17 -4 -25 0 -8 -9 -15 -19
-15 -46 0 -122 -33 -165 -70 -117 -104 -133 -268 -37 -389 122 -155 357 -139
463 30 28 46 33 49 61 43 l30 -6 -19 28 c-57 89 -66 92 -83 30 -27 -102 -127
-181 -228 -180 -53 1 -131 31 -155 61 -14 17 -16 14 119 133 47 41 62 60 57
73 -4 9 -13 17 -20 17 -6 0 -54 -36 -104 -80 -51 -44 -96 -80 -101 -80 -14 0
-33 100 -26 142 13 82 68 153 144 185 19 8 62 17 98 20 35 3 64 8 64 10 0 6
-62 93 -67 93 -2 0 -4 -2 -4 -5z"/>
<path d="M2928 1016 c-49 -12 -88 -24 -88 -27 0 -3 17 -11 38 -17 l38 -12 23
-95 c13 -53 21 -98 19 -100 -4 -5 -254 -65 -268 -65 -4 0 -18 43 -31 95 l-23
95 27 28 c15 15 27 31 27 33 0 3 -40 -4 -90 -15 -49 -12 -90 -24 -90 -28 0 -3
13 -9 29 -13 16 -3 34 -12 39 -18 5 -7 32 -110 61 -231 l53 -218 -26 -27 c-14
-15 -26 -30 -26 -33 0 -5 135 25 170 39 10 4 6 8 -15 16 -16 5 -35 14 -42 19
-13 10 -59 195 -51 204 10 9 252 65 264 60 10 -4 54 -162 54 -195 0 -6 -11
-21 -25 -33 -14 -12 -25 -25 -25 -28 0 -4 41 3 90 14 50 11 90 23 90 27 0 4
-13 10 -29 14 -34 7 -46 20 -54 55 -7 36 -87 372 -93 391 -2 9 7 31 22 48 15
18 25 33 23 35 -2 1 -43 -7 -91 -18z"/>
<path d="M2115 943 c-109 -25 -197 -127 -211 -246 -25 -215 189 -372 398 -292
9 4 19 -4 27 -22 10 -22 14 -24 20 -13 10 18 22 120 15 120 -3 0 -18 -7 -34
-15 -102 -53 -214 -51 -283 6 -120 99 -124 257 -8 362 92 83 227 72 333 -27
21 -19 40 -32 42 -28 2 4 7 34 11 67 8 59 7 60 -12 43 -26 -24 -35 -23 -79 7
-58 40 -145 55 -219 38z"/>
</g>
</svg>
